<svg width="237" height="161" viewBox="0 0 237 161" fill="none" xmlns="http://www.w3.org/2000/svg">
<g clip-path="url(#clip0_1049_10220)">
<path d="M80.5107 121.184C79.6094 119.382 78.258 117.879 76.5308 116.903C74.8036 115.852 72.8513 115.326 70.5238 115.326C68.1957 115.326 66.1686 115.852 64.366 116.979C62.564 118.03 61.2126 119.531 60.2365 121.409C59.26 123.286 58.7344 125.464 58.7344 127.942C58.7344 130.42 59.26 132.523 60.3113 134.4C61.3628 136.278 62.8644 137.779 64.7418 138.831C66.6187 139.882 68.7966 140.408 71.1995 140.408C72.6263 140.408 74.0531 140.108 75.6301 139.582C77.1317 138.981 78.4082 138.305 79.3844 137.479C79.7596 137.178 79.9098 136.803 79.9098 136.428C79.9098 135.977 79.6848 135.602 79.309 135.226C79.0091 135.001 78.6333 134.851 78.258 134.926C77.8074 134.926 77.5069 135.076 77.1317 135.376C76.456 135.977 75.6301 136.428 74.5037 136.803C73.3768 137.178 72.3258 137.404 71.1995 137.404C69.3975 137.404 67.8205 137.029 66.4685 136.202C65.1171 135.376 63.9907 134.25 63.1648 132.823C62.4891 131.697 62.1887 130.495 62.0385 129.069H80.2103C80.6609 129.069 81.0362 128.918 81.412 128.618C81.7119 128.317 81.8621 127.942 81.8621 127.492C81.8621 125.089 81.412 122.986 80.5107 121.184ZM66.0932 119.682C67.3698 118.856 68.8714 118.48 70.5986 118.48C72.3258 118.48 73.7526 118.856 74.9538 119.682C76.1555 120.433 77.0563 121.559 77.7326 122.911C78.1826 123.887 78.4831 125.014 78.6333 126.215H62.1887C62.3389 125.089 62.6394 124.038 63.0894 123.061C63.7657 121.559 64.8167 120.433 66.0932 119.682Z" fill="#252644"/>
<path d="M103.189 140.108C102.813 140.108 102.513 140.032 102.287 139.958C102.062 139.883 101.837 139.657 101.612 139.282L84.6409 118.255C84.3405 117.88 84.1154 117.504 84.1902 117.054C84.1902 116.603 84.3405 116.303 84.6409 115.927C84.9414 115.627 85.3166 115.477 85.8427 115.477C86.3681 115.477 86.8188 115.627 87.194 116.003L104.315 137.404C104.69 137.855 104.915 138.306 104.84 138.756C104.766 139.206 104.615 139.507 104.239 139.733C103.864 140.032 103.489 140.108 103.189 140.108Z" fill="#252644"/>
<path d="M109.872 150.696C109.346 150.696 108.895 150.546 108.595 150.245C108.295 149.945 108.145 149.494 108.145 148.969V127.717C108.145 125.389 108.745 123.286 109.796 121.409C110.923 119.531 112.349 118.03 114.227 116.979C116.104 115.927 118.207 115.326 120.534 115.326C122.862 115.326 125.115 115.852 126.992 116.979C128.869 118.105 130.371 119.607 131.497 121.484C132.624 123.361 133.15 125.539 133.15 127.942C133.15 130.345 132.624 132.448 131.573 134.325C130.521 136.202 129.02 137.705 127.218 138.831C125.416 139.957 123.313 140.483 121.06 140.483C119.033 140.483 117.23 140.032 115.578 139.206C113.926 138.38 112.65 137.178 111.598 135.827V149.043C111.598 149.569 111.448 150.02 111.148 150.32C110.848 150.62 110.322 150.696 109.872 150.696ZM120.534 137.254C122.262 137.254 123.839 136.879 125.19 136.052C126.542 135.226 127.668 134.1 128.494 132.673C129.245 131.247 129.695 129.67 129.695 127.867C129.695 126.065 129.32 124.488 128.494 123.061C127.743 121.634 126.617 120.508 125.19 119.682C123.839 118.856 122.262 118.405 120.534 118.405C118.807 118.405 117.306 118.856 115.879 119.682C114.527 120.508 113.401 121.634 112.65 123.061C111.899 124.488 111.448 126.065 111.448 127.867C111.448 129.67 111.824 131.247 112.65 132.673C113.401 134.1 114.527 135.226 115.879 136.052C117.306 136.803 118.807 137.254 120.534 137.254Z" fill="#252644"/>
<path d="M158.831 121.184C157.93 119.382 156.578 117.879 154.851 116.903C153.125 115.927 151.172 115.326 148.844 115.326C146.516 115.326 144.489 115.852 142.687 116.979C140.884 118.03 139.533 119.531 138.557 121.409C137.581 123.286 137.055 125.464 137.055 127.942C137.055 130.42 137.581 132.523 138.632 134.4C139.683 136.278 141.185 137.779 143.062 138.831C144.94 139.882 147.117 140.408 149.52 140.408C150.947 140.408 152.373 140.108 153.951 139.582C155.452 138.981 156.729 138.305 157.705 137.479C158.081 137.178 158.231 136.803 158.231 136.428C158.231 135.977 158.005 135.602 157.63 135.226C157.33 135.001 156.954 134.851 156.578 134.926C156.128 134.926 155.828 135.076 155.452 135.376C154.776 135.977 153.951 136.428 152.824 136.803C151.698 137.178 150.646 137.404 149.52 137.404C147.718 137.404 146.141 137.029 144.79 136.202C143.438 135.376 142.311 134.25 141.485 132.823C140.81 131.697 140.509 130.495 140.359 129.069H158.531C158.981 129.069 159.357 128.918 159.732 128.618C160.033 128.317 160.183 127.942 160.183 127.492C160.183 125.089 159.732 122.986 158.831 121.184ZM144.414 119.682C145.69 118.856 147.192 118.48 148.919 118.48C150.646 118.48 152.073 118.856 153.275 119.682C154.476 120.433 155.377 121.559 156.053 122.911C156.504 123.887 156.804 125.014 156.954 126.215H140.509C140.659 125.089 140.96 124.038 141.41 123.061C142.086 121.559 143.137 120.433 144.414 119.682Z" fill="#252644"/>
<path d="M185.564 120.508C184.588 118.781 183.237 117.504 181.585 116.603C179.932 115.702 177.98 115.251 175.878 115.251C173.925 115.251 172.123 115.702 170.546 116.528C169.42 117.129 168.519 117.88 167.693 118.781V117.279C167.693 116.753 167.543 116.302 167.242 116.003C166.942 115.702 166.566 115.552 165.966 115.552C165.44 115.552 164.989 115.702 164.689 116.003C164.389 116.302 164.238 116.753 164.238 117.279V138.38C164.238 138.906 164.389 139.282 164.689 139.657C164.989 139.957 165.44 140.108 165.966 140.108C166.491 140.108 166.867 139.957 167.242 139.657C167.543 139.357 167.693 138.981 167.693 138.38V125.089C167.693 123.812 168.068 122.686 168.744 121.709C169.42 120.733 170.396 119.907 171.522 119.382C172.724 118.781 174.076 118.555 175.502 118.555C177.004 118.555 178.431 118.856 179.632 119.457C180.834 120.058 181.81 120.958 182.485 122.16C183.161 123.361 183.537 124.864 183.537 126.741V138.456C183.537 138.906 183.687 139.357 184.063 139.657C184.438 139.957 184.814 140.183 185.339 140.183C185.79 140.183 186.24 140.032 186.54 139.657C186.841 139.282 187.066 138.906 187.066 138.456V126.741C186.991 124.338 186.54 122.235 185.564 120.508Z" fill="#252644"/>
<path d="M201.031 140.408C199.229 140.408 197.502 140.108 195.776 139.507C194.048 138.906 192.622 138.005 191.57 136.803C191.27 136.428 191.12 136.052 191.195 135.602C191.27 135.151 191.495 134.775 191.87 134.4C192.321 134.1 192.696 133.949 193.222 134.025C193.673 134.1 194.048 134.25 194.349 134.626C195.025 135.452 196.001 136.127 197.202 136.578C198.404 137.029 199.68 137.254 201.182 137.254C203.36 137.254 205.011 136.879 205.988 136.127C206.964 135.376 207.49 134.476 207.49 133.349C207.49 132.298 206.964 131.396 205.988 130.646C204.937 129.97 203.284 129.369 200.957 128.993C197.953 128.543 195.7 127.642 194.273 126.441C192.847 125.239 192.171 123.812 192.171 122.16C192.171 120.658 192.547 119.382 193.373 118.33C194.199 117.279 195.25 116.528 196.602 116.077C197.953 115.552 199.455 115.326 201.031 115.326C203.059 115.326 204.786 115.702 206.213 116.378C207.64 117.053 208.841 118.03 209.742 119.156C210.043 119.531 210.193 119.907 210.118 120.358C210.043 120.808 209.817 121.108 209.442 121.409C209.067 121.634 208.691 121.709 208.165 121.634C207.715 121.559 207.34 121.334 206.964 120.958C206.213 120.132 205.312 119.457 204.336 119.006C203.36 118.631 202.233 118.405 200.957 118.405C199.305 118.405 198.028 118.705 196.977 119.382C196.001 120.057 195.475 120.883 195.475 121.934C195.475 122.611 195.625 123.211 196.076 123.737C196.451 124.263 197.127 124.713 198.028 125.089C198.929 125.464 200.206 125.764 201.858 126.065C204.111 126.441 205.913 126.966 207.189 127.642C208.541 128.317 209.442 129.143 209.967 130.12C210.568 131.096 210.793 132.073 210.793 133.199C210.793 134.626 210.343 135.827 209.517 136.879C208.691 137.93 207.565 138.756 206.138 139.356C204.636 140.108 202.984 140.408 201.031 140.408Z" fill="#252644"/>
<path d="M235.648 121.184C234.746 119.382 233.395 117.879 231.668 116.903C229.94 115.927 227.988 115.326 225.66 115.326C223.333 115.326 221.305 115.852 219.503 116.979C217.701 118.03 216.349 119.531 215.373 121.409C214.397 123.286 213.871 125.464 213.871 127.942C213.871 130.42 214.397 132.523 215.448 134.4C216.499 136.278 218.001 137.779 219.878 138.831C221.756 139.882 223.933 140.408 226.336 140.408C227.763 140.408 229.189 140.108 230.766 139.582C232.269 138.981 233.545 138.305 234.521 137.479C234.896 137.178 235.047 136.803 235.047 136.428C235.047 135.977 234.822 135.602 234.446 135.226C234.145 135.001 233.77 134.851 233.395 134.926C232.944 134.926 232.644 135.076 232.269 135.376C231.592 135.977 230.766 136.428 229.64 136.803C228.514 137.178 227.463 137.404 226.336 137.404C224.534 137.404 222.957 137.029 221.605 136.202C220.254 135.376 219.128 134.25 218.302 132.823C217.625 131.697 217.325 130.495 217.175 129.069H235.347C235.798 129.069 236.173 128.918 236.548 128.618C236.849 128.317 236.999 127.942 236.999 127.492C236.999 125.089 236.548 122.986 235.648 121.184ZM221.23 119.682C222.507 118.856 224.008 118.48 225.735 118.48C227.463 118.48 228.889 118.856 230.091 119.682C231.292 120.433 232.193 121.559 232.869 122.911C233.319 123.887 233.62 125.014 233.77 126.215H217.325C217.475 125.089 217.776 124.038 218.226 123.061C218.902 121.559 219.954 120.433 221.23 119.682Z" fill="#252644"/>
<path d="M84.7156 137.48C84.3403 137.93 84.1153 138.38 84.1901 138.831C84.2649 139.282 84.4151 139.582 84.791 139.807C85.1662 140.032 85.4667 140.182 85.7671 140.182C86.1423 140.182 86.4428 140.108 86.6678 140.032C86.8934 139.957 87.1185 139.732 87.3441 139.357L92.9758 132.448L90.8734 129.82L84.7156 137.48Z" fill="#252644"/>
<path d="M104.689 117.129C104.689 116.678 104.538 116.378 104.238 116.002C103.938 115.702 103.562 115.552 103.037 115.552C102.511 115.552 102.06 115.702 101.685 116.077L95.8281 123.362L97.9306 125.99L104.088 118.33C104.538 117.955 104.764 117.579 104.689 117.129Z" fill="#252644"/>
<path fill-rule="evenodd" clip-rule="evenodd" d="M34.3678 96.0731C37.8586 93.9334 42.4329 96.3873 42.4329 100.533V119.231C42.4329 121.142 41.3599 122.7 40.0074 123.636L38.9855 122.16L39.9666 123.663L33.4562 127.912L39.9116 131.961C41.544 132.911 42.4329 134.647 42.4329 136.428V155.127C42.4329 159.272 37.8586 161.725 34.3678 159.586L34.3592 159.581L8.93559 143.606C7.54346 142.82 6.70312 141.319 6.70312 139.732V115.927C6.70312 114.245 7.62527 112.887 8.88628 112.085L8.89065 112.082L34.3592 96.0785L34.3678 96.0731ZM37.9811 120.671C38.5689 120.258 38.842 119.719 38.842 119.231V100.533C38.842 99.2739 37.415 98.4247 36.2514 99.1303L10.8142 115.114C10.8129 115.115 10.8117 115.115 10.8105 115.116C10.4223 115.364 10.294 115.658 10.294 115.927V139.732C10.294 140.076 10.4829 140.359 10.71 140.483L10.7586 140.51L36.2515 156.528C37.415 157.235 38.842 156.385 38.842 155.127V136.428C38.842 135.818 38.5422 135.314 38.0947 135.058L38.0627 135.04L26.7932 127.972L37.9811 120.671Z" fill="#FE2B8E"/>
<path fill-rule="evenodd" clip-rule="evenodd" d="M35.4148 105.983C35.9299 106.83 35.6607 107.935 34.8134 108.45L18.5117 118.362L35.1423 128.904C35.9798 129.435 36.2283 130.544 35.6975 131.382C35.1666 132.219 34.0573 132.468 33.2198 131.937L14.1467 119.847C13.6222 119.514 13.3068 118.935 13.3126 118.313C13.3183 117.693 13.6446 117.119 14.1752 116.796L32.9478 105.382C33.7952 104.866 34.8996 105.136 35.4148 105.983Z" fill="#FE2B8E"/>
<path d="M184.692 77.0885C184.692 80.7993 187.326 83.4327 190.917 83.4327C194.508 83.4327 197.141 80.7993 197.141 77.0885V51.1729C197.141 40.7587 203.066 35.0729 212.103 35.0729C220.183 35.0729 224.851 39.9208 224.851 48.4796V77.0885C224.851 80.7993 227.484 83.4327 231.075 83.4327C234.666 83.4327 237.299 80.7993 237.299 77.0885V47.2227C237.299 32.9781 228.98 23.4617 215.095 23.4617C207.195 23.4617 201.869 26.2149 198.517 30.8833C197.919 31.7212 197.141 31.4818 197.141 30.4045V6.34424C197.141 2.63346 194.508 0 190.917 0C187.326 0 184.692 2.63346 184.692 6.34424V77.0885ZM132.983 41.2375C132.983 50.2751 139.208 55.123 147.108 57.4572L157.521 60.4498C162.01 61.7067 164.344 63.203 164.344 66.3751C164.344 70.6844 160.633 72.839 154.05 72.839C149.561 72.839 146.09 71.1033 143.517 68.41C141.302 66.1955 137.831 65.7766 135.078 67.8115C132.445 69.9063 131.846 73.8565 134.36 76.6097C138.968 81.697 146.629 84.1509 154.05 84.1509C165.182 84.1509 176.613 78.8242 176.613 65.7167C176.613 56.4398 170.688 51.9509 161.651 49.2576L151.237 46.2651C146.629 44.8885 145.192 43.2725 145.192 40.5792C145.192 36.9881 148.664 34.7736 154.11 34.7736C158.598 34.7736 162.01 36.5093 165.002 38.7238C167.995 40.9383 171.825 40.5792 173.68 38.0056C175.536 35.5517 175.655 32.0803 172.783 29.5665C168.354 25.7361 162.369 23.4019 154.05 23.4019C142.798 23.5216 132.983 29.8658 132.983 41.2375ZM76.1273 53.8662C76.1273 42.8535 83.5485 35.1327 94.3212 35.1327C105.094 35.1327 112.515 43.0331 112.515 53.8662C112.515 64.6993 105.094 72.5996 94.3212 72.5996C83.6083 72.5996 76.1273 64.6993 76.1273 53.8662ZM63.3795 53.8662C63.3795 70.9836 75.8879 84.2108 92.2265 84.2108C101.144 84.2108 107.069 80.8591 110.959 75.5323C111.677 74.6346 112.336 74.9338 112.336 76.0112V77.1483C112.336 80.8591 114.969 83.4926 118.56 83.4926C122.151 83.4926 124.784 80.8591 124.784 77.1483V30.584C124.784 26.8732 122.151 24.2398 118.56 24.2398C114.969 24.2398 112.336 26.8732 112.336 30.584V31.4818C112.336 32.4993 111.617 32.8584 110.959 31.9606C107.009 26.7535 101.144 23.5216 92.3462 23.5216C76.1273 23.5216 63.3795 36.9283 63.3795 53.8662ZM42.7318 77.0885C42.7318 80.7993 45.3652 83.4327 48.9561 83.4327C52.547 83.4327 55.1803 80.7993 55.1803 77.0885V6.34424C55.1803 2.63346 52.547 0 48.9561 0C45.3652 0 42.7318 2.63346 42.7318 6.34424V77.0885ZM15.0818 83.4926C18.6727 83.4926 21.3061 80.8591 21.3061 77.1483V37.8859C21.3061 37.1677 21.7848 36.7487 22.4432 36.7487H29.3856C32.8568 36.7487 35.55 34.1751 35.55 30.8234C35.55 27.4717 32.9167 24.8981 29.3856 24.8981H22.503C21.7848 24.8981 21.3659 24.4193 21.3659 23.761V20.8881C21.3659 15.5613 24.2386 12.4491 29.4455 11.9703C33.6348 11.6112 35.9091 9.39665 35.9091 5.80558C35.9091 2.57361 33.8144 0 29.2061 0C17.4159 0 8.79773 9.03755 8.79773 21.1874V23.761C8.79773 24.4792 8.31894 24.8981 7.66061 24.8981H6.16439C2.69318 24.8981 0 27.4717 0 30.8234C0 34.1751 2.63333 36.7487 6.16439 36.7487H7.66061C8.37879 36.7487 8.79773 37.2275 8.79773 37.8859V77.1483C8.85758 80.7993 11.4909 83.4926 15.0818 83.4926Z" fill="#FE2B8F"/>
</g>
<defs>
<clipPath id="clip0_1049_10220">
<rect width="237" height="161" fill="white"/>
</clipPath>
</defs>
</svg>
